# xmcd CD database file
#
# Track frame offsets:
#	150
#	15257
#	32480
#	43180
#	64820
#	80057
#	94452
#	116395
#	129667
#	145940
#	158840
#	185102
#
# Disc length: 2573 seconds
#
# Revision: 0
# Processed by: cddbd v1.4b42PL1 Copyright (c) Steve Scherf et al.
# Submitted via: CDex 1.40Beta8
#
DISCID=a30a0b0c
DTITLE=Keith G. Riemer - Prairie Magic
DYEAR=1995
DGENRE=Country
TTITLE0=Western Standard Time
TTITLE1=Adobe Made for Two
TTITLE2=Be My Cotton Tail
TTITLE3=Prairie Flower
TTITLE4=Prairie Magic
TTITLE5=Please Bring you Fiddle
TTITLE6=Don't Give up on Me
TTITLE7=Gonna Ride
TTITLE8=Tied Two in Reno
TTITLE9=I'm Not Alone
TTITLE10=Mi Amigo Caballo
TTITLE11=Siegenbock
EXTD=YEAR: 1995 ID3G: 2
EXTT0=
EXTT1=
EXTT2=
EXTT3=
EXTT4=
EXTT5=
EXTT6=
EXTT7=
EXTT8=
EXTT9=
EXTT10=
EXTT11=
PLAYORDER=
